<svg width="57" height="37" viewBox="0 0 57 37" fill="none" xmlns="http://www.w3.org/2000/svg">
<g clip-path="url(#clip0_1_5)">
<path fill-rule="evenodd" clip-rule="evenodd" d="M31.2698 23.5735H0L22.5886 1.9685C24.5135 0.127483 27.2814 -0.477585 29.8109 0.388872C32.3398 1.25587 34.1366 3.42604 34.4993 6.05177L38.1081 32.1433C38.2162 32.9227 38.7306 33.5369 39.4839 33.7848C40.2372 34.0338 41.021 33.8467 41.5794 33.2879L51.2649 23.5735H40.172L39.8011 21.1994H57L43.2854 34.9551C42.4337 35.8098 41.3035 36.2659 40.14 36.2659C39.6691 36.2659 39.1922 36.1906 38.7267 36.0373C37.1114 35.5054 35.9642 34.1366 35.7328 32.4655L32.1242 6.37446C31.8808 4.61252 30.7228 3.21413 29.0261 2.63273C27.3298 2.05026 25.5461 2.44126 24.2539 3.67614L5.9323 21.1994H30.9325L31.2698 23.5735ZM50.538 11.1997H48.3627V0.0288367H50.538L54.6637 7.35419H54.6958V0.0288367H56.8875V11.1997H54.7442L50.5706 3.87437H50.538V11.1997Z" fill="white"/>
</g>
<defs>
<clipPath id="clip0_1_5">
<rect width="57" height="37" fill="white"/>
</clipPath>
</defs>
</svg>
