<svg width="50" height="30" viewBox="0 0 50 30" fill="none" xmlns="http://www.w3.org/2000/svg">
<g clip-path="url(#clip0_1_96)">
<path fill-rule="evenodd" clip-rule="evenodd" d="M27.4297 19.1136H0L19.8146 1.59608C21.5031 0.103365 23.931 -0.387231 26.1499 0.315301C28.3682 1.01827 29.9444 2.77787 30.2626 4.90684L33.4281 26.0622C33.523 26.6941 33.9742 27.1921 34.635 27.3931C35.2958 27.595 35.9833 27.4432 36.4731 26.9902L44.9692 19.1136H35.2386L34.9132 17.1887H50L37.9697 28.342C37.2226 29.035 36.2311 29.4048 35.2106 29.4048C34.7975 29.4048 34.3791 29.3437 33.9708 29.2195C32.5539 28.7882 31.5476 27.6783 31.3446 26.3234L28.1791 5.16848C27.9656 3.73988 26.9498 2.60605 25.4615 2.13465C23.9735 1.66237 22.4089 1.9794 21.2753 2.98065L5.20377 17.1887H27.1338L27.4297 19.1136ZM44.3316 9.08085H42.4234V0.0233811H44.3316L47.9506 5.96285H47.9788V0.0233811H49.9013V9.08085H48.0212L44.3602 3.14138H44.3316V9.08085Z" fill="#858585"/>
</g>
<defs>
<clipPath id="clip0_1_96">
<rect width="50" height="30" fill="white"/>
</clipPath>
</defs>
</svg>
